 <svg
        xmlns="http://www.w3.org/2000/svg"
        width="212"
        height="212"
        viewBox="0 0 212 212"
        fill="none"
        style={svgStyles}
      >
       <path d="M92.7739 44.0543C92.7634 44.0356 92.7541 44.0163 92.7461 43.9965L92.7589 43.9836C92.7656 44.0068 92.7706 44.0304 92.7739 44.0543V44.0543Z" fill="#71DDB1"/>
            <path d="M92.8237 44.3079C92.8039 44.2385 92.7897 44.1676 92.7812 44.0959C92.8158 44.161 92.8305 44.2347 92.8237 44.3079Z" fill="#71DDB1"/>
            <path d="M102.347 117.306C102.294 117.427 102.25 117.546 102.197 117.671C98.283 127.2 95.5525 138.601 94.9186 152.246C84.0536 125.631 66.0294 112.748 49.9746 106.562C50.2629 97.6684 51.4989 82.203 56.5466 72.7012C56.5466 72.7012 65.0944 74.7003 75.8534 83.1295C84.3419 89.7799 94.219 100.446 102.347 117.306Z" fill="#CCDDE2"/>
            <path d="M103.951 117.162L103.584 117.079C103.637 116.952 103.684 116.831 103.735 116.708C103.807 116.857 103.881 117.024 103.951 117.162Z" fill="#71DDB1"/>
            <path d="M103.951 117.162L103.584 117.079C103.637 116.952 103.684 116.831 103.735 116.708C103.807 116.857 103.881 117.024 103.951 117.162Z" fill="#71DDB1"/>
            <path d="M96.924 178.252C96.8201 178.252 96.712 178.252 96.6102 178.252C56.0716 178.252 22.4908 147.531 16.4742 107.395C16.0693 103.969 16.0078 101.923 16.0078 101.923C16.0078 101.923 30.6358 100.439 47.5958 107.115C62.6372 113.036 79.5167 125.364 89.6905 150.83V150.849C89.752 151.001 89.8135 151.152 89.8686 151.311C92.9087 159.017 95.3297 167.919 96.9113 178.195C96.9176 178.214 96.924 178.233 96.924 178.252Z" fill="#CCDDE2"/>
            <path d="M191.292 103.153C187.419 148.612 150.541 184.306 105.576 184.489C105.602 182.424 106.248 159.089 120.333 137.934C126.629 128.387 135.087 120.459 145.021 114.794C145.303 114.631 145.576 114.476 145.869 114.321C146.214 114.124 146.568 113.935 146.929 113.746C147.02 113.693 147.118 113.645 147.217 113.592C147.563 113.409 147.908 113.227 148.262 113.051C148.445 112.958 148.627 112.862 148.818 112.776C149.195 112.58 149.581 112.39 149.967 112.207C150.353 112.025 150.692 111.864 151.059 111.696L151.188 111.635C151.464 111.506 151.737 111.385 152.017 111.264C152.365 111.101 152.71 110.952 153.062 110.804C154.088 110.359 155.146 109.935 156.225 109.532L156.598 109.39C157.054 109.214 157.512 109.046 157.976 108.883C167.304 105.576 178.318 103.475 191.292 103.153Z" fill="#CCDDE2"/>
            <path d="M130.094 82.0631C120.908 89.021 110.56 99.9877 103.734 116.708C95.6121 99.515 85.7625 88.6351 77.291 81.8532C82.2942 72.5252 93.6341 53.5661 103.95 44.6981C103.95 44.6981 119.568 60.1254 130.094 82.0631Z" fill="#CCDDE2"/>
            <path d="M157.05 107.109C156.596 107.268 156.147 107.433 155.697 107.605L155.333 107.745C154.273 108.141 153.238 108.559 152.231 108.996C151.886 109.142 151.546 109.286 151.207 109.445C150.932 109.566 150.662 109.685 150.393 109.81L150.264 109.869C149.906 110.034 149.547 110.2 149.204 110.374C148.86 110.547 148.447 110.736 148.074 110.929C147.889 111.014 147.709 111.107 147.531 111.2C147.184 111.372 146.844 111.55 146.505 111.73C146.41 111.783 146.312 111.828 146.223 111.881C145.878 112.067 145.532 112.252 145.191 112.445C144.909 112.597 144.64 112.748 144.364 112.907C134.616 118.464 126.315 126.241 120.134 135.606C106.321 156.356 105.685 179.248 105.659 181.273L105.627 181.213C103.974 170.469 101.445 161.162 98.2645 153.106L98.5147 152.286L98.0801 152.623C98.0801 152.623 98.0801 152.623 98.0801 152.61C98.7012 138.962 101.372 127.55 105.205 118.025L105.564 118.103L105.352 117.66C112.049 101.258 122.199 90.5007 131.216 83.6764C141.835 75.6416 150.887 73.0404 150.887 73.0404C155.717 79.0103 156.819 97.272 157.05 107.109Z" fill="#CCDDE2"/>
            <path d="M95.8965 154.623V154.601C95.8965 154.601 95.8965 154.614 95.8965 154.623Z" stroke="#CCDDE2" stroke-width="0.84164" stroke-miterlimit="10"/>
            <path d="M103.732 116.916C103.677 117.045 103.628 117.172 103.573 117.308C99.4411 127.582 96.56 139.888 95.888 154.607C84.4188 125.896 65.3876 111.995 48.4297 105.324C48.7328 95.7285 50.0388 79.0463 55.3727 68.7939C55.3727 68.7939 64.3975 70.95 75.7586 80.0448C84.722 87.2189 95.1502 98.7262 103.732 116.916Z" stroke="#CCDDE2" stroke-width="0.84164" stroke-miterlimit="10"/>
            <path d="M103.96 117.395L103.572 117.308C103.627 117.172 103.676 117.045 103.731 116.916C103.808 117.073 103.88 117.236 103.96 117.395Z" stroke="#CCDDE2" stroke-width="0.84164" stroke-miterlimit="10"/>
            <path d="M95.8965 154.623V154.601C95.8965 154.601 95.8965 154.614 95.8965 154.623Z" stroke="#CCDDE2" stroke-width="0.84164" stroke-miterlimit="10"/>
            <path d="M103.96 117.395L103.572 117.308C103.627 117.172 103.676 117.045 103.731 116.916C103.808 117.073 103.88 117.236 103.96 117.395Z" stroke="#CCDDE2" stroke-width="0.84164" stroke-miterlimit="10"/>
            <path opacity="0.9" d="M33.8166 151.61C33.0682 150.696 32.3326 149.761 31.6245 148.811C22.0928 136.13 15.8139 121.307 13.3374 105.637C12.7205 101.798 12.8159 99.4704 12.8159 99.4704C12.8159 99.4704 29.2989 97.7998 48.4319 105.324C65.3919 111.997 84.4168 125.888 95.8881 154.607V154.631C95.958 154.802 96.0301 154.974 96.0874 155.152C99.5218 163.844 102.248 173.876 104.033 185.468C104.033 185.489 104.033 185.511 104.033 185.534C103.912 185.534 103.798 185.534 103.677 185.534C80.0241 185.5 58.4531 176.066 42.1885 160.654C40.4925 159.049 38.841 157.372 37.2637 155.636" stroke="#CCDDE2" stroke-width="0.84164" stroke-miterlimit="10"/>
            <path d="M95.8965 154.623V154.601C95.8965 154.601 95.8965 154.614 95.8965 154.623Z" stroke="#CCDDE2" stroke-width="0.84164" stroke-miterlimit="10"/>
            <path opacity="0.9" d="M194.747 99.4768C190.649 147.569 151.641 185.324 104.07 185.517C104.098 183.333 104.783 158.648 119.68 136.267C126.342 126.169 135.291 117.783 145.8 111.79C146.099 111.618 146.39 111.455 146.693 111.292C147.06 111.08 147.433 110.885 147.806 110.683C147.901 110.626 148.005 110.577 148.109 110.52C148.476 110.327 148.843 110.134 149.216 109.95C149.409 109.848 149.602 109.738 149.803 109.655C150.204 109.443 150.611 109.25 151.02 109.057C151.429 108.864 151.785 108.692 152.173 108.514L152.311 108.449C152.601 108.313 152.892 108.186 153.189 108.056C153.555 107.885 153.92 107.728 154.293 107.571C155.379 107.1 156.498 106.651 157.638 106.223L158.033 106.072C158.516 105.888 159 105.707 159.491 105.538C169.373 102.031 181.024 99.8181 194.747 99.4768Z" stroke="#CCDDE2" stroke-width="0.84164" stroke-miterlimit="10"/>
            <path d="M131.616 80.2674C121.9 87.6259 110.952 99.2266 103.731 116.916C95.1494 98.7262 84.7212 87.2189 75.7578 80.0448C81.0578 70.172 93.0485 50.121 103.954 40.74C103.96 40.74 120.469 57.0597 131.616 80.2674Z" stroke="#CCDDE2" stroke-width="0.84164" stroke-miterlimit="10"/>
            <path d="M40.1236 132.805C40.1258 132.791 40.1258 132.777 40.1236 132.763C40.1236 132.748 40.1236 132.733 40.1236 132.706C40.1203 132.682 40.1203 132.657 40.1236 132.634C40.1296 132.684 40.1395 132.735 40.1533 132.784C40.1501 132.789 40.1458 132.794 40.1407 132.798C40.1356 132.801 40.1298 132.804 40.1236 132.805Z" fill="white"/>
            <path d="M40.2015 146.511C39.8744 147.566 39.4566 148.591 38.9528 149.574C38.8087 149.852 38.6666 150.124 38.5098 150.395C37.9742 151.4 37.317 152.336 36.553 153.181C36.4173 153.136 36.2816 153.079 36.1608 153.03C36.1332 153.03 36.1099 153.009 36.0887 153C33.6189 151.923 31.7639 149.903 31.2127 147.633C30.7209 145.633 31.164 143.471 30.2142 141.595C29.044 139.284 25.8894 137.838 25.4951 135.226C25.1389 132.784 27.3374 130.543 26.9791 128.152C26.572 125.445 23.2458 123.84 22.631 121.198C22.2388 119.557 22.5886 117.664 22.4465 115.972C22.2824 114.081 21.9619 112.207 21.4883 110.369C21.7172 110.354 21.9462 110.348 22.1752 110.34C26.8392 110.261 31.4544 112.884 32.9681 116.579C34.1892 119.564 33.568 123.011 35.1877 125.809C35.2858 125.99 35.3956 126.164 35.5163 126.331C35.7288 126.626 35.9574 126.909 36.2011 127.179L36.7162 127.715C36.801 127.8 36.8943 127.878 36.9791 127.972C37.0639 128.065 37.1572 128.143 37.2441 128.237C38.0497 129.006 38.8723 129.784 39.4065 130.706C39.4559 130.786 39.4991 130.87 39.5358 130.957C39.5858 131.04 39.6284 131.128 39.663 131.219C39.7091 131.313 39.7502 131.408 39.786 131.506C39.8284 131.612 39.8644 131.718 39.8984 131.834C39.9492 132.006 40.0001 132.169 40.034 132.341C40.034 132.383 40.034 132.419 40.0489 132.455C40.0637 132.491 40.0489 132.483 40.0489 132.498C40.052 132.512 40.052 132.526 40.0489 132.54C40.052 132.565 40.0569 132.589 40.0637 132.612V132.627C40.0645 132.654 40.0688 132.68 40.0764 132.706V132.706C40.0764 132.733 40.0764 132.748 40.0764 132.763C40.0786 132.777 40.0786 132.791 40.0764 132.805V132.82L39.5274 140.787C39.8793 142.714 40.7591 144.635 40.2015 146.511Z" fill="white"/>
            <path d="M44.3486 127.172C44.7069 125.445 44.7345 123.632 45.5485 121.983C47.0622 118.943 51.4845 116.736 56.121 116.594H56.2058C56.6298 116.594 57.0538 116.594 57.4778 116.615C56.9981 118.195 56.6708 119.818 56.5005 121.461C56.3436 122.924 56.7125 124.561 56.3075 125.966C55.6567 128.249 52.1947 129.636 51.775 131.97C51.4019 134.039 53.6936 135.975 53.3162 138.08C52.9092 140.336 49.6253 141.584 48.4127 143.592C47.4332 145.214 47.8911 147.075 47.3845 148.796C46.7909 150.76 44.8405 152.509 42.2731 153.429C42.1078 153.486 41.9594 153.543 41.794 153.594C41.7071 153.615 41.6075 153.651 41.5227 153.672C41.493 153.651 41.4654 153.622 41.4294 153.594C40.6005 152.888 39.6719 151.697 38.9023 150.414L38.9596 149.6C39.4633 148.617 39.8811 147.592 40.2083 146.537C40.7658 144.66 39.886 142.74 39.5723 140.813L40.1213 132.846L40.2931 132.704C40.3558 132.657 40.4153 132.607 40.4711 132.553C41.3191 131.868 42.235 131.211 42.8901 130.433C43.7041 129.477 44.0836 128.427 44.3253 127.327" fill="white"/>
            <path d="M44.3262 127.287C44.3262 127.251 44.341 127.217 44.3474 127.172Z" fill="white"/>
            <path d="M44.3473 127.166C44.3473 127.211 44.3325 127.245 44.3261 127.281C44.0844 128.381 43.705 129.43 42.8909 130.386C42.2358 131.164 41.3221 131.822 40.472 132.506C40.4161 132.561 40.3566 132.611 40.2939 132.657L40.1222 132.805C40.1251 132.796 40.1251 132.787 40.1222 132.778C40.1156 132.753 40.1079 132.729 40.0988 132.706V132.706C40.0955 132.682 40.0955 132.658 40.0988 132.634V132.619C40.092 132.595 40.0871 132.571 40.084 132.547C40.0871 132.533 40.0871 132.518 40.084 132.504C40.0872 132.498 40.0889 132.49 40.0889 132.483C40.0889 132.476 40.0872 132.469 40.084 132.462C40.0787 132.423 40.0709 132.385 40.0607 132.347C40.0268 132.176 39.9759 132.012 39.925 131.841C39.8911 131.733 39.855 131.618 39.8126 131.512C39.7768 131.415 39.7358 131.319 39.6897 131.226C39.6596 131.133 39.6168 131.044 39.5625 130.963C39.5257 130.877 39.4825 130.793 39.4332 130.713C38.8989 129.791 38.0764 129.017 37.2708 128.243C37.1838 128.15 37.0927 128.057 37.0058 127.978C36.9188 127.9 36.8277 127.806 36.7429 127.722L36.2277 127.185C35.9841 126.915 35.7555 126.632 35.543 126.337C35.543 126.337 36.0178 118.084 40.2366 115.587C44.2201 113.208 44.3473 125.773 44.3473 127.166Z" fill="white"/>
            <path d="M44.3262 127.287C44.3262 127.251 44.341 127.217 44.3474 127.172Z" fill="white"/>
            <path d="M40.1158 132.778V132.812C40.1179 132.798 40.1179 132.783 40.1158 132.769C40.1158 132.754 40.1158 132.74 40.1158 132.712C40.1124 132.688 40.1124 132.664 40.1158 132.64C40.1126 132.686 40.1126 132.732 40.1158 132.778V132.778Z" fill="white"/>
            <path d="M54.3945 119.235C46.79 127.418 43.2157 144.675 41.8229 153.579C41.7084 154.332 41.6109 155.019 41.5176 155.638" fill="white"/>
            <path d="M55.0976 160.651L51.5996 181.292C51.5168 181.856 51.2374 182.372 50.8106 182.75C50.3839 183.128 49.8374 183.343 49.2676 183.357H30.9805C30.4059 183.342 29.8553 183.123 29.4278 182.738C29.0004 182.354 28.724 181.83 28.6485 181.26L25.4219 160.651H55.0976Z" fill="white"/>
            <path d="M58.4187 158.349C58.3868 158.96 58.1254 159.537 57.6868 159.964C57.2482 160.391 56.6646 160.636 56.0527 160.651H24.5135C23.9077 160.637 23.3293 160.396 22.8919 159.977C22.4545 159.558 22.1898 158.99 22.1497 158.385V158.385C22.0161 156.914 23.1122 155.629 24.5135 155.629H56.0527C57.4392 155.64 58.531 156.88 58.4187 158.349Z" fill="white"/>
            <path d="M40.1386 132.82C40.138 132.774 40.1302 132.728 40.1152 132.684L40.1386 132.82Z" fill="white"/>
            <path d="M24.5098 113.401C31.8089 122.882 35.2433 142.869 36.5938 153.187C36.7082 154.082 36.8058 154.902 36.8927 155.636" fill="white"/>
            <path d="M40.7795 123.475C39.8658 126.288 39.8212 129.129 39.9315 130.929C39.9606 131.51 40.0222 132.089 40.1159 132.663" fill="white"/>
            <path d="M40.1236 132.805C40.1258 132.791 40.1258 132.777 40.1236 132.763C40.1236 132.748 40.1236 132.733 40.1236 132.706C40.1203 132.682 40.1203 132.657 40.1236 132.634C40.1296 132.684 40.1395 132.735 40.1533 132.784C40.1501 132.789 40.1458 132.794 40.1407 132.798C40.1356 132.801 40.1298 132.804 40.1236 132.805Z" stroke="#CCDDE2" stroke-width="0.84164" stroke-miterlimit="10"/>
            <path d="M40.2015 146.511C39.8744 147.566 39.4566 148.591 38.9528 149.574C38.8087 149.852 38.6666 150.124 38.5098 150.395C37.9742 151.4 37.317 152.336 36.553 153.181C36.4173 153.136 36.2816 153.079 36.1608 153.03C36.1332 153.03 36.1099 153.009 36.0887 153C33.6189 151.923 31.7639 149.903 31.2127 147.633C30.7209 145.633 31.164 143.471 30.2142 141.595C29.044 139.284 25.8894 137.838 25.4951 135.226C25.1389 132.784 27.3374 130.543 26.9791 128.152C26.572 125.445 23.2458 123.84 22.631 121.198C22.2388 119.557 22.5886 117.664 22.4465 115.972C22.2824 114.081 21.9619 112.207 21.4883 110.369C21.7172 110.354 21.9462 110.348 22.1752 110.34C26.8392 110.261 31.4544 112.884 32.9681 116.579C34.1892 119.564 33.568 123.011 35.1877 125.809C35.2858 125.99 35.3956 126.164 35.5163 126.331C35.7288 126.626 35.9574 126.909 36.2011 127.179L36.7162 127.715C36.801 127.8 36.8943 127.878 36.9791 127.972C37.0639 128.065 37.1572 128.143 37.2441 128.237C38.0497 129.006 38.8723 129.784 39.4065 130.706C39.4559 130.786 39.4991 130.87 39.5358 130.957C39.5858 131.04 39.6284 131.128 39.663 131.219C39.7091 131.313 39.7502 131.408 39.786 131.506C39.8284 131.612 39.8644 131.718 39.8984 131.834C39.9492 132.006 40.0001 132.169 40.034 132.341C40.034 132.383 40.034 132.419 40.0489 132.455C40.0637 132.491 40.0489 132.483 40.0489 132.498C40.052 132.512 40.052 132.526 40.0489 132.54C40.052 132.565 40.0569 132.589 40.0637 132.612V132.627C40.0645 132.654 40.0688 132.68 40.0764 132.706V132.706C40.0764 132.733 40.0764 132.748 40.0764 132.763C40.0786 132.777 40.0786 132.791 40.0764 132.805V132.82L39.5274 140.787C39.8793 142.714 40.7591 144.635 40.2015 146.511Z" stroke="#CCDDE2" stroke-width="0.84164" stroke-miterlimit="10"/>
            <path d="M44.3486 127.172C44.7069 125.445 44.7345 123.632 45.5485 121.983C47.0622 118.943 51.4845 116.736 56.121 116.594H56.2058C56.6298 116.594 57.0538 116.594 57.4778 116.615C56.9981 118.195 56.6708 119.818 56.5005 121.461C56.3436 122.924 56.7125 124.561 56.3075 125.966C55.6567 128.249 52.1947 129.636 51.775 131.97C51.4019 134.039 53.6936 135.975 53.3162 138.08C52.9092 140.336 49.6253 141.584 48.4127 143.592C47.4332 145.214 47.8911 147.075 47.3845 148.796C46.7909 150.76 44.8405 152.509 42.2731 153.429C42.1078 153.486 41.9594 153.543 41.794 153.594C41.7071 153.615 41.6075 153.651 41.5227 153.672C41.493 153.651 41.4654 153.622 41.4294 153.594C40.6005 152.888 39.6719 151.697 38.9023 150.414L38.9596 149.6C39.4633 148.617 39.8811 147.592 40.2083 146.537C40.7658 144.66 39.886 142.74 39.5723 140.813L40.1213 132.846L40.2931 132.704C40.3558 132.657 40.4153 132.607 40.4711 132.553C41.3191 131.868 42.235 131.211 42.8901 130.433C43.7041 129.477 44.0836 128.427 44.3253 127.327" stroke="#CCDDE2" stroke-width="0.84164" stroke-miterlimit="10"/>
            <path d="M44.3262 127.287C44.3262 127.251 44.341 127.217 44.3474 127.172" stroke="#CCDDE2" stroke-width="0.84164" stroke-miterlimit="10"/>
            <path d="M44.3473 127.166C44.3473 127.211 44.3325 127.245 44.3261 127.281C44.0844 128.381 43.705 129.43 42.8909 130.386C42.2358 131.164 41.3221 131.822 40.472 132.506C40.4161 132.561 40.3566 132.611 40.2939 132.657L40.1222 132.805C40.1251 132.796 40.1251 132.787 40.1222 132.778C40.1156 132.753 40.1079 132.729 40.0988 132.706V132.706C40.0955 132.682 40.0955 132.658 40.0988 132.634V132.619C40.092 132.595 40.0871 132.571 40.084 132.547C40.0871 132.533 40.0871 132.518 40.084 132.504C40.0872 132.498 40.0889 132.49 40.0889 132.483C40.0889 132.476 40.0872 132.469 40.084 132.462C40.0787 132.423 40.0709 132.385 40.0607 132.347C40.0268 132.176 39.9759 132.012 39.925 131.841C39.8911 131.733 39.855 131.618 39.8126 131.512C39.7768 131.415 39.7358 131.319 39.6897 131.226C39.6596 131.133 39.6168 131.044 39.5625 130.963C39.5257 130.877 39.4825 130.793 39.4332 130.713C38.8989 129.791 38.0764 129.017 37.2708 128.243C37.1838 128.15 37.0927 128.057 37.0058 127.978C36.9188 127.9 36.8277 127.806 36.7429 127.722L36.2277 127.185C35.9841 126.915 35.7555 126.632 35.543 126.337C35.543 126.337 36.0178 118.084 40.2366 115.587C44.2201 113.208 44.3473 125.773 44.3473 127.166Z" stroke="#CCDDE2" stroke-width="0.84164" stroke-miterlimit="10"/>
            <path d="M44.3262 127.287C44.3262 127.251 44.341 127.217 44.3474 127.172" stroke="#CCDDE2" stroke-width="0.84164" stroke-miterlimit="10"/>
            <path d="M40.1158 132.778V132.812C40.1179 132.798 40.1179 132.783 40.1158 132.769C40.1158 132.754 40.1158 132.74 40.1158 132.712C40.1124 132.688 40.1124 132.664 40.1158 132.64C40.1126 132.686 40.1126 132.732 40.1158 132.778V132.778Z" stroke="#CCDDE2" stroke-width="0.84164" stroke-miterlimit="10"/>
            <path d="M54.3945 119.235C46.79 127.418 43.2157 144.675 41.8229 153.579C41.7084 154.332 41.6109 155.019 41.5176 155.638" stroke="#CCDDE2" stroke-width="0.84164" stroke-miterlimit="10"/>
            <path d="M55.0976 160.651L51.5996 181.292C51.5168 181.856 51.2374 182.372 50.8106 182.75C50.3839 183.128 49.8374 183.343 49.2676 183.357H30.9805C30.4059 183.342 29.8553 183.123 29.4278 182.738C29.0004 182.354 28.724 181.83 28.6485 181.26L25.4219 160.651H55.0976Z" stroke="#CCDDE2" stroke-width="0.84164" stroke-miterlimit="10"/>
            <path d="M58.4187 158.349C58.3868 158.96 58.1254 159.537 57.6868 159.964C57.2482 160.391 56.6646 160.636 56.0527 160.651H24.5135C23.9077 160.637 23.3293 160.396 22.8919 159.977C22.4545 159.558 22.1898 158.99 22.1497 158.385V158.385C22.0161 156.914 23.1122 155.629 24.5135 155.629H56.0527C57.4392 155.64 58.531 156.88 58.4187 158.349Z" stroke="#CCDDE2" stroke-width="0.84164" stroke-miterlimit="10"/>
            <path d="M40.1386 132.82C40.138 132.774 40.1302 132.728 40.1152 132.684L40.1386 132.82Z" stroke="#CCDDE2" stroke-width="0.84164" stroke-miterlimit="10"/>
            <path d="M24.5098 113.401C31.8089 122.882 35.2433 142.869 36.5938 153.187C36.7082 154.082 36.8058 154.902 36.8927 155.636" stroke="#CCDDE2" stroke-width="0.84164" stroke-miterlimit="10"/>
            <path d="M40.7795 123.475C39.8658 126.288 39.8212 129.129 39.9315 130.929C39.9606 131.51 40.0222 132.089 40.1159 132.663" stroke="#CCDDE2" stroke-width="0.84164" stroke-miterlimit="10"/>
            <path d="M159.492 105.538C159 105.707 158.517 105.888 158.034 106.072L157.639 106.223C156.499 106.647 155.379 107.1 154.294 107.571C153.921 107.728 153.556 107.885 153.189 108.056C152.893 108.186 152.602 108.313 152.312 108.449L152.174 108.514C151.786 108.692 151.4 108.871 151.021 109.057C150.641 109.244 150.205 109.449 149.804 109.655C149.592 109.748 149.41 109.848 149.217 109.95C148.843 110.134 148.477 110.327 148.11 110.52C148.006 110.577 147.898 110.626 147.807 110.683C147.434 110.885 147.061 111.084 146.694 111.292C146.391 111.455 146.1 111.618 145.801 111.79C135.292 117.783 126.343 126.169 119.681 136.267C104.784 158.648 104.099 183.331 104.071 185.517L104.035 185.453C102.252 173.868 99.5238 163.829 96.0958 155.137L96.365 154.253L95.8965 154.618C95.8965 154.618 95.8965 154.618 95.8965 154.603C96.5685 139.884 99.4496 127.577 103.581 117.304L103.969 117.391C103.893 117.232 103.817 117.069 103.74 116.912C110.961 99.2224 121.909 87.6218 131.625 80.2632C143.073 71.5967 152.84 68.7898 152.84 68.7898C158.055 75.2346 159.242 94.9294 159.492 105.538Z" stroke="#CCDDE2" stroke-width="0.84164" stroke-miterlimit="10"/>
            <path d="M160.185 181.684C158.664 181.379 157.174 181.014 155.716 180.59C149.733 178.841 142.784 175.856 140.401 169.581C139.804 167.96 139.616 166.216 139.853 164.505C140.09 162.794 140.745 161.168 141.76 159.77C142.834 158.279 144.346 157.158 146.084 156.562C149.869 155.339 154.056 157.245 156.862 160.064C159.669 162.884 161.476 166.513 163.674 169.829C161.685 165.377 159.667 160.796 159.394 155.928C159.182 152.133 160.212 148.018 162.828 145.167C165.236 142.542 170.867 140.488 174.183 142.411C176.371 143.683 177.244 146.388 177.619 148.89C178.65 155.735 177.327 162.691 176.01 169.488C176.894 165.854 177.844 162.186 179.646 158.909C181.448 155.631 184.21 152.735 187.749 151.521C190.227 150.673 193.17 150.764 195.245 152.369C197.181 153.853 198.046 156.382 198.313 158.811C198.758 162.886 197.8 167.018 196.15 170.768C189.996 184.767 172.928 184.228 160.185 181.684Z" fill="white"/>
            <path d="M174.07 174.754C174.07 174.754 183.557 177.389 186.907 164.202Z" fill="white"/>
            <path d="M169.85 152.246C167.213 158.224 169.85 176.161 169.85 176.161Z" fill="white"/>
            <path d="M161.059 174.347C160.662 174.279 156.857 173.747 153.613 172.256C151.101 171.103 148.924 169.373 148.924 166.842" fill="white"/>
            <path d="M154.374 166.844C154.374 166.844 150.666 171.167 153.612 172.258Z" fill="white"/>
            <path d="M151.912 176.191C152.44 175.458 155.185 176.929 156.979 173.467Z" fill="white"/>
            <path d="M168.678 160.16C167.741 159.456 165.286 160.16 164.926 154.531Z" fill="white"/>
            <path d="M169.088 165.434C169.088 165.434 173.192 163.95 173.192 160.738Z" fill="white"/>
            <path d="M177.908 174.83C177.908 174.83 180.049 169.303 180.929 166.842Z" fill="white"/>
            <path d="M184.557 169.549C184.557 169.549 186.908 171.413 189.721 168.423Z" fill="white"/>
            <path d="M184.557 166.844C184.557 166.844 183.039 166.185 183.743 162.392Z" fill="white"/>
            <path d="M160.185 181.684C158.65 181.472 157.172 181.016 155.716 180.59C149.733 178.841 142.784 175.856 140.401 169.581C139.804 167.96 139.616 166.216 139.853 164.505C140.09 162.794 140.745 161.168 141.76 159.77C142.834 158.279 144.346 157.158 146.084 156.562C149.869 155.339 154.056 157.245 156.862 160.064C159.669 162.884 161.476 166.513 163.674 169.829C161.685 165.377 159.667 160.796 159.394 155.928C159.182 152.133 160.212 148.018 162.828 145.167C165.236 142.542 170.867 140.488 174.183 142.411C176.371 143.683 177.244 146.388 177.619 148.89C178.65 155.735 177.327 162.691 176.01 169.488C176.894 165.854 177.844 162.186 179.646 158.909C181.448 155.631 184.21 152.735 187.749 151.521C190.227 150.673 193.17 150.764 195.245 152.369C197.181 153.853 198.046 156.382 198.313 158.811C198.758 162.886 197.857 167.045 196.15 170.768C189.896 184.398 172.697 183.367 160.185 181.684Z" stroke="#CCDDE2" stroke-width="0.84164" stroke-miterlimit="10"/>
            <path d="M174.07 174.754C174.07 174.754 183.557 177.389 186.907 164.202" stroke="#CCDDE2" stroke-width="0.84164" stroke-miterlimit="10"/>
            <path d="M169.85 152.246C167.213 158.224 169.85 176.161 169.85 176.161" stroke="#CCDDE2" stroke-width="0.84164" stroke-miterlimit="10"/>
            <path d="M161.059 174.347C160.662 174.279 156.857 173.747 153.613 172.256C151.101 171.103 148.924 169.373 148.924 166.842" stroke="#CCDDE2" stroke-width="0.84164" stroke-miterlimit="10"/>
            <path d="M154.374 166.844C154.374 166.844 150.666 171.167 153.612 172.258" stroke="#CCDDE2" stroke-width="0.84164" stroke-miterlimit="10"/>
            <path d="M151.912 176.191C152.44 175.458 155.185 176.929 156.979 173.467" stroke="#CCDDE2" stroke-width="0.84164" stroke-miterlimit="10"/>
            <path d="M168.678 160.16C167.741 159.456 165.286 160.16 164.926 154.531" stroke="#CCDDE2" stroke-width="0.84164" stroke-miterlimit="10"/>
            <path d="M169.088 165.434C169.088 165.434 173.192 163.95 173.192 160.738" stroke="#CCDDE2" stroke-width="0.84164" stroke-miterlimit="10"/>
            <path d="M177.908 174.83C177.908 174.83 180.049 169.303 180.929 166.842" stroke="#CCDDE2" stroke-width="0.84164" stroke-miterlimit="10"/>
            <path d="M184.557 169.549C184.557 169.549 186.908 171.413 189.721 168.423" stroke="#CCDDE2" stroke-width="0.84164" stroke-miterlimit="10"/>
            <path d="M184.557 166.844C184.557 166.844 183.039 166.185 183.743 162.392" stroke="#CCDDE2" stroke-width="0.84164" stroke-miterlimit="10"/>
            <path d="M185.203 133.863C187.099 135.496 188.791 137.352 190.242 139.39C192.911 143.039 194.421 147.406 194.576 151.923" stroke="#CCDDE2" stroke-width="0.84164" stroke-miterlimit="10"/>
            <path d="M119.086 59.1226C122.902 56.8245 126.881 54.783 131.113 53.3414C141.664 49.7374 153.428 50.5366 161.787 58.4463C169.033 65.296 172.459 75.472 173.159 85.224C173.159 85.3661 173.182 85.5166 173.188 85.6671C173.508 90.6915 173.246 96.2396 173.21 101.792" stroke="#CCDDE2" stroke-width="0.84164" stroke-miterlimit="10"/>
            <path d="M35.9083 101.484C36.8644 95.3809 35.6963 89.64 35.0603 83.3584C33.4236 66.992 38.6282 47.4096 57.4814 44.961C67.7252 43.6254 76.0399 47.452 82.9659 54.7914C84.522 56.4387 86.0781 58.3742 87.7253 60.2441" stroke="#CCDDE2" stroke-width="0.84164" stroke-miterlimit="10"/>
            <path d="M28.5573 155.536C28.5573 155.536 14.2791 149.248 15.7079 137.433C16.1065 134.099 17.6774 131.116 19.6617 128.375" stroke="#CCDDE2" stroke-width="0.84164" stroke-miterlimit="10"/>
            <path d="M157.515 163.414C156.972 163.022 156.407 162.651 155.819 162.299C149.955 158.828 141.965 157.482 135.266 157.079C134.857 157.05 134.454 157.028 134.055 157.011C133.527 156.988 133.011 156.85 132.542 156.607C132.055 156.361 131.633 156.006 131.308 155.57C130.979 154.278 130.584 153.005 130.125 151.754L129.183 147.514C128.832 146.287 128.557 145.041 128.359 143.781C127.384 137.406 126.663 129.483 126.408 126.517C126.439 126.53 126.471 126.54 126.504 126.545L129.415 127.478C129.425 127.477 129.436 127.477 129.446 127.478L130.479 127.781C134.481 128.917 138.681 129.769 142.851 129.861C146.782 129.943 151.094 129.299 154.452 127.124C154.734 126.946 155.009 126.755 155.274 126.551C157.865 124.601 159.665 121.607 160.685 118.569C162.561 112.95 162.966 106.944 161.861 101.124C161.548 99.5214 161.107 97.9462 160.545 96.4133C159.061 92.3323 156.917 88.5079 155.077 84.5413C154.653 83.617 154.047 82.6482 153.973 81.6221C153.884 80.3989 154.511 79.2223 154.708 78.0329C154.938 76.6038 155.044 75.1576 155.026 73.7103C155.024 71.9934 154.695 70.2927 154.057 68.6986C153.508 67.3587 152.533 65.1115 150.801 65.1942C150.246 63.4177 149.317 61.3613 147.683 61.1302C147.258 61.0652 146.826 61.1703 146.478 61.4228C146.359 61.2509 146.229 61.086 146.09 60.9288C145.408 60.1613 144.117 59.4702 143.08 59.8688C141.024 60.6829 141.965 63.5131 142.985 65.6606C142.46 65.5476 141.921 65.5119 141.386 65.5546C140.188 65.6606 138.802 66.144 138.338 67.2973C138.085 67.9333 138.174 69.0802 138.819 69.4406C139.637 69.8879 140.642 69.5911 141.46 70.0109C142.374 70.4815 142.732 71.7429 142.599 72.6969C142.573 73.0709 142.424 73.4258 142.175 73.706C140.729 75.1519 139.737 71.162 139.188 70.5048C138.441 69.6081 137.348 69.7713 136.57 70.5281C135.033 72.0121 135.7 75.0013 136.345 76.7949C137.044 78.758 137.954 80.8229 139.406 82.3514C141.821 84.8848 142.086 88.9234 142.724 92.1903C142.987 93.5407 143.239 94.9039 143.443 96.2649C143.845 98.9065 144.079 101.565 143.867 104.232C143.813 104.964 143.609 105.677 143.266 106.326C142.924 106.976 142.451 107.547 141.877 108.005C141.303 108.463 140.641 108.797 139.932 108.987C139.223 109.177 138.482 109.218 137.757 109.108C136.029 108.845 134.006 108.531 131.853 108.194C131.853 108.194 131.869 108.177 131.88 108.173C128.944 107.174 126.347 107.052 123.763 106.916C116.472 105.788 109.925 104.728 109.925 104.728C109.776 104.7 109.642 104.622 109.544 104.506C109.447 104.39 109.393 104.244 109.391 104.092L109.302 95.9978C109.8 96.6084 110.881 96.6932 111.543 96.3391C111.806 96.2051 112.022 95.9947 112.163 95.7355C112.304 95.4763 112.364 95.1805 112.334 94.8869V94.8869C112.762 94.8834 113.184 94.775 113.561 94.5711C113.673 94.5086 113.78 94.4377 113.881 94.3591C114.091 94.1715 114.259 93.9431 114.377 93.6879C114.495 93.4326 114.559 93.156 114.566 92.8751C114.575 92.7199 114.567 92.5642 114.543 92.4108C114.543 92.3535 114.526 92.2984 114.515 92.2369C114.492 92.1182 114.464 92.0016 114.43 91.8765C114.413 91.8045 114.392 91.7324 114.369 91.6645C114.314 91.4525 114.252 91.2405 114.206 91.0285C114.23 91.0317 114.255 91.0317 114.28 91.0285C114.489 91.0167 114.697 90.9869 114.901 90.9395C115.095 90.8932 115.285 90.8293 115.467 90.7487C115.569 90.7034 115.669 90.6524 115.766 90.5961C115.783 90.5902 115.798 90.5808 115.81 90.5685C115.975 90.4679 116.13 90.3538 116.275 90.2272C116.324 90.1868 116.371 90.1437 116.415 90.0979C116.497 90.0202 116.576 89.9381 116.65 89.8519C116.745 89.741 116.833 89.6249 116.915 89.5043C116.955 89.453 116.99 89.3984 117.021 89.341C117.315 88.869 117.53 88.3519 117.657 87.8104C117.668 87.7595 117.68 87.7086 117.691 87.6599C118.115 85.6416 117.479 83.3372 115.707 82.5846C115.353 82.4341 114.098 82.2878 114.098 81.7557C114.098 81.7176 114.104 81.6798 114.114 81.6433C114.113 81.6357 114.113 81.6276 114.114 81.62C114.148 81.5409 114.196 81.469 114.257 81.408C114.284 81.3741 114.322 81.3401 114.356 81.3062C114.43 81.2405 114.513 81.179 114.591 81.1154C114.672 81.0623 114.749 81.0042 114.823 80.9416C114.854 80.9156 114.883 80.888 114.912 80.8589C114.967 80.7974 115.024 80.7359 115.075 80.6745C115.125 80.6138 115.172 80.5501 115.215 80.4837C115.259 80.4158 115.304 80.348 115.344 80.2717C115.388 80.2048 115.426 80.1338 115.456 80.0597C115.52 79.9339 115.573 79.8026 115.613 79.6675C115.685 79.4453 115.73 79.2154 115.747 78.9827C115.747 78.9 115.747 78.8152 115.747 78.7304C115.747 76.8691 114.229 74.942 112.31 74.7385C112 74.7045 111.686 74.7415 111.392 74.8466C111.248 74.8966 111.106 74.9546 110.968 75.0204L110.756 75.1201C110.612 75.1879 110.466 75.26 110.315 75.3321C110.189 75.3925 110.051 75.4271 109.911 75.4338C109.878 75.4327 109.846 75.4285 109.815 75.4211L109.754 75.4041C109.709 75.3943 109.668 75.3715 109.637 75.3384C109.6 75.3113 109.569 75.2766 109.546 75.2367C109.527 75.1978 109.513 75.1564 109.506 75.1137C109.504 75.1111 109.503 75.1082 109.503 75.1052C109.503 75.1022 109.504 75.0993 109.506 75.0968C109.495 75.0473 109.49 74.9968 109.491 74.9462C109.49 74.8414 109.505 74.7372 109.535 74.6367C109.595 74.4177 109.625 74.1917 109.624 73.9647C109.624 73.8824 109.618 73.8003 109.607 73.7188C109.597 73.6055 109.58 73.493 109.556 73.3817C109.349 72.5615 108.856 71.8422 108.166 71.3528C106.222 69.9791 102.577 69.9727 101.573 72.5188C101.551 72.557 101.541 72.5973 101.524 72.6354C101.394 72.4849 101.265 72.328 101.136 72.1711C101.046 72.1136 100.953 72.0626 100.856 72.0185C99.5098 71.4313 97.5827 71.6835 96.6012 72.8326C95.7871 73.7866 95.52 75.26 96.2429 76.3412C95.8375 75.8175 95.2877 75.424 94.6614 75.2091C94.7362 75.4188 94.8358 75.6188 94.9582 75.8048C94.9007 75.7267 94.8391 75.6517 94.7737 75.5801C94.7228 75.5229 94.672 75.472 94.6211 75.4232C94.5702 75.3745 94.4981 75.3045 94.4366 75.2536C94.3752 75.2027 94.3073 75.1476 94.2416 75.0968C92.9802 74.1724 91.1231 74.077 89.9465 75.2324C89.0264 76.1355 88.8356 77.3842 89.1621 78.5947C89.4886 79.8053 90.2708 80.6469 90.8581 81.6899C88.8674 82.1903 87.2753 84.3972 87.9028 86.4663C88.0339 86.8943 88.2634 87.2856 88.5731 87.6089C88.8827 87.9321 89.2638 88.1783 89.6857 88.3277C89.8368 88.3656 89.9906 88.3918 90.1458 88.4061C90.1976 88.4114 90.2478 88.4274 90.2932 88.453C90.3386 88.4785 90.3782 88.5132 90.4097 88.5548C90.4411 88.5963 90.4636 88.6439 90.4758 88.6946C90.4881 88.7452 90.4897 88.7979 90.4807 88.8492C90.4491 88.9883 90.4327 89.1305 90.432 89.2732C90.4332 89.6147 90.5225 89.9502 90.691 90.2473C90.8596 90.5443 91.1019 90.7929 91.3944 90.9692C91.4379 90.9934 91.4759 91.0263 91.5062 91.0658C91.5364 91.1053 91.5583 91.1506 91.5704 91.1988C91.5825 91.2471 91.5846 91.2973 91.5766 91.3464C91.5686 91.3955 91.5506 91.4425 91.5238 91.4843C91.2291 91.9035 91.0559 92.396 91.0233 92.9074C90.9908 93.4188 91.1001 93.9292 91.3393 94.3824C91.9944 95.6947 93.5992 96.8331 95.1129 96.3837C95.5999 96.236 96.0214 95.9254 96.3065 95.5039C96.337 95.472 96.3633 95.4363 96.3849 95.3979C96.3905 95.3852 96.3984 95.3737 96.4082 95.3639C96.6262 95.0385 96.7709 94.6696 96.8322 94.2827C97.2052 94.874 97.6226 95.436 98.0809 95.9639L98.3565 96.2713L97.5191 101.436L97.3962 102.366C97.3507 102.688 97.1906 102.983 96.9453 103.197C96.6999 103.41 96.3858 103.528 96.0606 103.528C95.8761 103.528 95.6853 103.528 95.5009 103.528C95.1256 103.528 94.7546 103.539 94.3858 103.549C93.2643 103.577 92.147 103.628 91.0319 103.696C90.1839 103.751 89.355 103.812 88.5218 103.886C88.0978 103.92 87.6908 103.958 87.271 104.003C86.8513 104.047 86.4358 104.088 86.0202 104.132C85.2083 104.223 84.39 104.317 83.5759 104.425C82.5943 104.554 81.6191 104.688 80.6376 104.828C79.1027 105.052 77.572 105.298 76.035 105.563C74.5383 105.822 73.048 106.091 71.5512 106.365C69.4482 106.753 67.324 107.077 65.1912 107.425C64.6312 107.515 64.0584 107.485 63.5109 107.336C62.9634 107.188 62.454 106.924 62.0166 106.563C61.5791 106.202 61.2238 105.751 60.9743 105.242C60.7248 104.732 60.5868 104.176 60.5696 103.609C60.3301 96.6126 64.2924 83.8523 64.2924 83.8523C64.3835 82.8602 65.5644 82.1563 66.2555 81.5924C68.2334 80.03 69.4016 77.2316 70.0842 74.8763C70.5676 73.1951 71.0255 70.7953 69.603 69.4173C68.8228 68.6604 67.7289 68.4972 66.9848 69.3939C66.4357 70.0554 65.4435 74.041 63.9956 72.5951C63.7466 72.3149 63.5975 71.96 63.5716 71.586C63.4465 70.6342 63.7836 69.3727 64.7079 68.9C65.5262 68.476 66.5311 68.777 67.3494 68.3297C67.9854 67.9693 68.0829 66.816 67.8306 66.1864C67.3664 65.0331 65.982 64.5498 64.7821 64.4438C64.2469 64.4011 63.7084 64.4368 63.1836 64.5498C64.2033 62.4022 65.1467 59.572 63.0882 58.76C62.0515 58.3509 60.7562 59.0399 60.0778 59.8073C59.9399 59.9645 59.8111 60.1294 59.692 60.3013C59.3437 60.0496 58.9106 59.9445 58.4857 60.0087C56.8427 60.2398 55.9247 62.2962 55.3693 64.0749C53.6542 63.9901 52.6832 66.1949 52.1278 67.5326C51.4984 69.0734 51.164 70.7188 51.142 72.3831C51.089 74.1536 51.214 75.9249 51.5151 77.6704C51.655 78.423 51.9073 79.1396 52.0875 79.8752C52.2847 80.6766 52.0706 81.4716 51.7801 82.2242C50.6417 85.1053 49.0368 87.8019 47.8327 90.6618C46.527 93.6884 45.4802 96.8203 44.7036 100.024C43.2068 106.348 42.8994 113.053 44.6484 119.36C47.9556 131.279 64.7121 127.365 74.3115 124.024C78.3246 122.629 81.0955 121.328 81.0955 121.328C81.0955 121.328 81.1167 122.252 81.1167 123.816V124.028C81.1061 126.148 80.9216 143.062 78.0724 155.481L77.977 155.644C78.0003 155.627 78.0448 155.627 78.0724 155.778C77.9159 156.117 77.6653 156.404 77.3503 156.604C77.0353 156.805 76.6693 156.911 76.2958 156.91C69.4736 156.882 40.7455 157.851 46.1918 176.414C47.2115 179.901 49.8742 182.138 53.6118 183.461C56.5798 184.521 60.2283 184.981 64.269 185.015H64.2966C56.3975 186.511 54.5594 198.262 63.3723 200.039C66.7643 200.722 69.4503 198.525 72.4989 197.588C74.2412 197.073 76.0552 196.843 77.871 196.906C79.0559 196.934 80.2375 197.045 81.4071 197.236C94.2142 199.333 107.21 200.04 120.169 199.344C128.931 198.862 137.863 197.762 146.177 194.83C152.444 192.617 159.321 188.744 162.408 182.746C163.502 180.635 164.067 178.291 164.055 175.913C164.047 170.264 161.435 166.244 157.515 163.414Z" fill="white"/>
            <path d="M25.3162 183.143L24.9961 182.839" stroke="#CCDDE2" stroke-width="0.84164" stroke-miterlimit="10"/>
            <path d="M130.133 151.444L129.189 147.194C128.839 145.967 128.564 144.721 128.367 143.46C127.392 137.086 126.671 129.165 126.414 126.199L129.454 127.168L128.394 124.809C128.394 124.809 124.903 113.058 131.888 107.883C126.836 106.163 122.789 107.047 118.062 105.96C116.24 105.536 114.318 105.165 112.193 104.817L110.656 104.548C110.595 108.724 107.688 109.672 105.297 110.126C99.4098 111.253 95.333 106.958 95.5026 103.219C88.9667 103.293 82.507 104.156 76.0389 105.254C76.8742 107.705 78.6338 115.048 73.6836 123.732L74.3196 123.711C78.3328 122.313 81.1036 121.014 81.1036 121.014C81.1036 121.014 81.1269 121.938 81.1269 123.503V123.715C81.1163 125.822 80.9319 142.748 78.0826 155.165C77.8706 155.57 78.036 155.072 78.0826 155.521C77.9096 155.866 77.7909 156.236 77.7307 156.617L77.8685 156.068C77.101 157.168 79.0218 158.502 81.7968 159.174C89.0515 160.946 129.041 164.05 131.299 156.617C131.432 156.174 131.436 155.702 131.312 155.256C130.983 153.966 130.59 152.694 130.133 151.444V151.444Z" fill="#353642"/>
            <path d="M77.8701 196.585C76.0564 196.525 74.2447 196.756 72.5044 197.27C69.4537 198.205 66.7634 200.404 63.3757 199.719C54.5628 197.942 56.403 186.191 64.3021 184.694C65.059 184.677 65.8158 184.673 66.5663 184.673H66.6172C70.2551 184.673 73.7997 184.769 76.7084 183.764C76.4349 184.016 69.3477 190.302 77.8701 196.585Z" fill="#CCDDE2"/>
            <path d="M110.649 104.539V104.55C110.588 108.726 107.681 109.674 105.29 110.128C99.4025 111.255 95.3257 106.96 95.4953 103.221" stroke="black" stroke-width="0.84164" stroke-miterlimit="10"/>
            <path d="M64.308 184.694C56.4089 186.191 54.5687 197.942 63.3815 199.719C66.7735 200.404 69.4596 198.205 72.5103 197.27C74.2519 196.755 76.0651 196.524 77.8802 196.585C79.0626 196.618 80.2413 196.732 81.4079 196.927C94.2145 199.028 107.211 199.739 120.17 199.047C128.932 198.563 137.861 197.465 146.176 194.533C152.445 192.318 159.32 188.445 162.407 182.449C163.501 180.338 164.066 177.992 164.054 175.614C164.054 169.958 161.436 165.939 157.524 163.106C156.98 162.714 156.413 162.345 155.828 161.991C149.964 158.521 141.976 157.175 135.277 156.772C134.868 156.744 134.463 156.721 134.067 156.704C133.539 156.682 133.022 156.545 132.553 156.301C132.066 156.057 131.643 155.702 131.319 155.265C131.003 154.85 130.781 154.372 130.668 153.863L130.136 151.446L129.193 147.196L128.366 143.46C127.391 137.086 126.67 129.165 126.413 126.199" stroke="black" stroke-width="0.84164" stroke-miterlimit="10"/>
            <path d="M138.048 178.994C135.434 184.97 128.97 182.924 121.868 178.623C117.461 175.954 113.7 175.574 111.48 175.655C114.61 175.375 117.344 174.41 118.114 170.872C118.735 167.997 117.115 165.36 114.313 164.512C121.05 164.215 127.963 164.724 133.446 168.964C133.45 168.964 140.667 173.011 138.048 178.994Z" fill="#CCDDE2"/>
            <path d="M114.268 90.6937C114.244 90.6968 114.22 90.6968 114.196 90.6937C114.261 91.0244 114.386 91.3784 114.469 91.7304C114.535 91.9964 114.564 92.2704 114.554 92.5444C114.465 93.827 113.555 94.5224 112.322 94.5563C112.353 94.8506 112.294 95.1475 112.153 95.4079C112.013 95.6683 111.796 95.8799 111.533 96.0149C110.871 96.3626 109.788 96.2841 109.29 95.6714C108.701 94.9612 108.993 94.0793 109.351 93.3013C109.481 93.0278 109.61 92.7692 109.716 92.5338C109.845 92.2413 109.958 91.9508 110.057 91.654C110.41 90.5557 110.684 89.4335 110.876 88.296C111.11 87.1469 111.265 85.9831 111.34 84.8128C111.262 84.5287 111.312 84.1174 111.2 83.8206C111.037 83.3625 110.742 82.9628 110.352 82.6716C109.546 82.078 108.474 82.1161 107.617 81.5904C106.842 81.1075 106.23 80.4019 105.862 79.5658C105.79 79.392 105.722 79.1672 105.62 78.9722C105.575 78.8663 105.506 78.772 105.419 78.6966C105.033 78.3722 104.808 78.9446 104.571 79.1672C104.327 79.392 104.039 79.5623 103.725 79.6669C103.41 79.7714 103.077 79.8078 102.748 79.7736V79.7736C102.498 79.7407 102.256 79.6692 102.029 79.5616C101.862 79.4709 101.706 79.3614 101.565 79.2351C101.396 79.0713 101.2 78.9385 100.986 78.8429C100.583 78.6924 100.562 79.358 100.505 79.5891C100.466 79.7888 100.383 79.9773 100.262 80.1403C100.14 80.3033 99.9834 80.4367 99.8029 80.5304C99.5851 80.6375 99.3461 80.6947 99.1033 80.6979C98.8205 80.7093 98.5378 80.6713 98.2681 80.5855C98.0075 80.5082 97.7597 80.3932 97.5324 80.2442C97.4917 80.2167 97.444 80.2013 97.3949 80.1995C97.3458 80.1978 97.2971 80.2098 97.2545 80.2344C97.2119 80.2589 97.177 80.2948 97.1538 80.3382C97.1306 80.3815 97.12 80.4305 97.1233 80.4795C97.2017 82.6716 95.1517 83.4348 94.31 83.6595C94.0272 87.2774 94.9114 90.8906 96.8328 93.9691C96.7619 94.4145 96.5804 94.8351 96.3049 95.1923C94.9206 95.54 93.3221 95.1626 92.7221 93.9691C92.0861 92.6971 92.1731 90.9354 93.161 90.028C92.4762 89.922 92.2854 88.9108 92.6776 88.3172C92.7115 88.2599 92.7264 88.226 92.7052 88.1709C92.6204 87.9398 91.6134 87.7469 91.3378 87.6621C90.9445 87.5217 90.5895 87.2914 90.3009 86.9896C90.0124 86.6878 89.7983 86.3228 89.6757 85.9237C89.0927 84.0008 90.5725 81.9487 92.4211 81.4844C91.872 80.5134 91.1491 79.729 90.8417 78.6076C90.5343 77.4861 90.7081 76.3201 91.5646 75.4721C91.9131 75.1407 92.3387 74.9016 92.803 74.7765C93.2672 74.6514 93.7554 74.6442 94.2231 74.7555C94.4959 74.9537 94.7374 75.1917 94.9397 75.4615C94.8152 75.2774 94.7155 75.0778 94.6429 74.8679C95.2702 75.0808 95.8205 75.4748 96.2244 76C95.5015 74.9188 95.7707 73.4432 96.5827 72.4892C97.5642 71.3402 99.4934 71.0879 100.838 71.6773C100.935 71.7211 101.029 71.7713 101.119 71.8278C101.247 71.9868 101.376 72.1437 101.505 72.2942C101.52 72.2535 101.537 72.2139 101.556 72.1755C101.829 72.456 102.087 72.7503 102.33 73.0574C103.203 70.5727 106.674 70.5664 108.508 71.8617C108.94 72.1699 109.293 72.575 109.54 73.0447C109.633 73.4574 109.625 73.8865 109.517 74.2955C109.404 74.6877 109.493 74.9845 109.746 75.0693C109.935 75.1154 110.136 75.0898 110.308 74.9972C110.98 74.694 111.535 74.323 112.315 74.4078C114.859 74.6771 116.714 77.9843 115.207 80.1424C115.117 80.2765 115.016 80.4021 114.904 80.5177C114.692 80.7297 114.215 80.9777 114.109 81.2809C114.106 81.2884 114.106 81.2967 114.109 81.3042C113.918 81.9402 115.326 82.0822 115.701 82.2455C119.025 83.6468 118.323 90.4817 114.268 90.6937Z" fill="#222222"/>
            <path d="M56.4762 73.4559C55.6855 71.7726 56.2642 69.413 57.1652 67.6301C57.8542 66.2458 57.3052 64.0261 55.5456 63.7781C53.7181 63.5322 52.6963 65.8366 52.126 67.2273C51.4954 68.7686 51.1602 70.4148 51.1381 72.08C51.0913 73.8509 51.2212 75.6221 51.526 77.3673C51.666 78.1178 51.9182 78.8364 52.0963 79.57C52.2935 80.3713 52.0794 81.1684 51.7889 81.9189C50.6505 84.8 49.0478 87.4966 47.8415 90.3565C46.5377 93.3837 45.4917 96.5154 44.7145 99.7184C43.2178 106.042 42.9082 112.748 44.6572 119.055C47.9644 130.974 64.723 127.06 74.3203 123.719C78.3334 122.322 81.1043 121.022 81.1043 121.022C81.1043 121.022 81.1276 121.947 81.1276 123.511C81.1276 123.583 81.1276 123.657 81.1276 123.723C81.1403 130.013 80.888 145.818 78.1787 155.207C78.0614 155.612 77.8151 155.968 77.4772 156.22C77.1393 156.472 76.7283 156.607 76.3067 156.604C69.4846 156.577 40.7586 157.546 46.2027 176.098C48.0429 182.365 55.1682 184.618 64.2715 184.697H64.3118C65.0516 184.697 65.8085 184.697 66.5759 184.675H66.6268C70.0084 184.558 73.3808 184.253 76.7286 183.762C88.5879 182.091 101.206 178.525 109.358 175.956C109.828 175.832 110.308 175.752 110.793 175.716C110.994 175.693 111.217 175.676 111.467 175.665H111.488C113.704 175.576 117.464 175.956 121.876 178.633C128.978 182.935 135.444 184.981 138.056 179.004C140.668 173.028 133.449 168.964 133.449 168.964C127.967 164.724 121.054 164.222 114.316 164.512C112.236 164.603 110.167 164.777 108.168 164.936C100.167 165.573 92.165 166.209 84.1613 166.844L73.6758 167.692" stroke="black" stroke-width="0.84164" stroke-miterlimit="10"/>
            <path d="M59.3275 72.3322C59.3275 72.3322 58.1848 70.0236 59.5989 66.4132C60.1819 64.9292 60.8539 63.1336 60.5783 61.5075C60.4921 60.9055 60.1722 60.3617 59.6879 59.9938C59.3398 59.7418 58.9063 59.6374 58.4816 59.7034C56.8408 59.9324 55.9207 61.9909 55.3652 63.7674" stroke="black" stroke-width="0.84164" stroke-miterlimit="10"/>
            <path d="M61.7151 70.9925C61.7151 70.9925 60.6296 69.1544 62.1094 66.3285C62.3574 65.8578 62.7772 65.1052 63.1694 64.2488C64.1912 62.1012 65.1325 59.271 63.074 58.4569C62.0373 58.0478 60.742 58.7368 60.0636 59.5063C59.9257 59.6628 59.7969 59.827 59.6777 59.9982" stroke="black" stroke-width="0.84164" stroke-miterlimit="10"/>
            <path d="M63.1765 64.236C63.7011 64.122 64.2398 64.0863 64.7749 64.13C65.9749 64.236 67.3592 64.7173 67.8256 65.8727C68.0779 66.5087 67.9867 67.6556 67.3422 68.0139C66.5239 68.4633 65.5212 68.1665 64.7029 68.5863C63.7891 69.0569 63.4308 70.3183 63.5644 71.2723C63.5903 71.6463 63.7394 72.0012 63.9884 72.2814C65.4342 73.7273 66.4264 69.7374 66.9755 69.0802C67.7217 68.1835 68.8135 68.3446 69.5937 69.1014C71.0183 70.4794 70.5583 72.8771 70.0728 74.5604C69.3923 76.9157 68.2242 79.7141 66.2568 81.2745C65.553 81.8299 64.3827 82.5465 64.2937 83.5386C64.2937 83.5386 60.3314 96.2904 60.5689 103.293C60.5861 103.86 60.724 104.416 60.9734 104.925C61.2227 105.435 61.5779 105.885 62.0151 106.246C62.4523 106.607 62.9614 106.871 63.5086 107.02C64.0558 107.169 64.6285 107.199 65.1883 107.109C67.3083 106.763 69.441 106.439 71.5483 106.049C73.045 105.775 74.5354 105.506 76.0321 105.247C82.6868 104.115 89.3309 103.236 96.0577 103.206C96.3828 103.206 96.6971 103.089 96.9426 102.876C97.1881 102.663 97.3482 102.368 97.3932 102.046L97.5204 101.124L98.3579 95.9491" stroke="black" stroke-width="0.84164" stroke-miterlimit="10"/>
            <path d="M149.692 74.5773C150.482 72.894 149.904 70.5345 149.003 68.7516C148.307 67.3672 148.863 65.1476 150.622 64.8995C150.684 64.8995 150.745 64.8889 150.802 64.8889C152.534 64.8041 153.51 67.0534 154.059 68.3933C154.697 69.9872 155.027 71.688 155.03 73.405C155.046 74.8523 154.939 76.2985 154.71 77.7277C154.515 78.9149 153.885 80.0936 153.976 81.3147C154.048 82.3408 154.654 83.3117 155.081 84.236C156.919 88.1941 159.07 92.0164 160.546 96.108C161.109 97.6403 161.549 99.2147 161.862 100.817C162.97 106.635 162.569 112.641 160.696 118.26C159.675 121.3 157.877 124.293 155.286 126.244C155.018 126.446 154.743 126.637 154.462 126.816C151.103 128.991 146.791 129.636 142.863 129.551C138.691 129.462 134.493 128.61 130.489 127.471C129.789 127.271 129.092 127.059 128.398 126.835C127.669 126.604 126.946 126.369 126.223 126.123C125.466 125.86 124.709 125.595 123.959 125.315" stroke="black" stroke-width="0.84164" stroke-miterlimit="10"/>
            <path d="M150.802 64.889C150.247 63.1125 149.318 61.0539 147.686 60.825C147.261 60.759 146.828 60.8634 146.48 61.1154C145.995 61.4833 145.675 62.0271 145.589 62.6291C145.314 64.2552 145.986 66.0487 146.569 67.5348C147.983 71.1388 146.838 73.4559 146.838 73.4559" stroke="black" stroke-width="0.84164" stroke-miterlimit="10"/>
            <path d="M146.48 61.1154C146.361 60.9415 146.227 60.7804 146.094 60.6214C145.409 59.854 144.12 59.165 143.081 59.5741C141.025 60.3861 141.966 63.2184 142.988 65.366C143.391 66.214 143.811 66.975 144.048 67.4457C145.532 70.2759 144.44 72.1097 144.44 72.1097" stroke="black" stroke-width="0.84164" stroke-miterlimit="10"/>
            <path d="M142.988 65.366C142.463 65.2523 141.925 65.2159 141.389 65.2579C140.189 65.366 138.805 65.8472 138.339 67.0026C138.086 67.6386 138.177 68.7855 138.822 69.1438C139.64 69.5933 140.643 69.2943 141.461 69.7162C142.375 70.1869 142.733 71.4483 142.6 72.4023C142.574 72.7762 142.425 73.1311 142.176 73.4114C140.73 74.8572 139.738 70.8674 139.189 70.2102C138.442 69.3113 137.351 69.4745 136.571 70.2314C135.034 71.7154 135.701 74.7046 136.346 76.5002C137.048 78.4612 137.955 80.5282 139.407 82.0546C141.824 84.5986 142.087 88.6266 142.727 91.8935C142.99 93.2461 143.242 94.6071 143.444 95.9703C143.846 98.6097 144.08 101.27 143.868 103.937C143.814 104.669 143.609 105.383 143.266 106.032C142.924 106.681 142.451 107.253 141.877 107.711C141.303 108.168 140.641 108.503 139.931 108.692C139.222 108.882 138.481 108.923 137.756 108.813C128.275 107.361 109.926 104.412 109.926 104.412C109.776 104.386 109.64 104.308 109.541 104.192C109.443 104.076 109.389 103.929 109.388 103.776L109.299 95.6799" stroke="black" stroke-width="0.84164" stroke-miterlimit="10"/>
            <path d="M94.3024 83.6531C93.9145 87.8231 95.3624 92.538 98.076 95.6459C103.139 101.436 107.404 95.6459 107.404 95.6459" stroke="black" stroke-width="0.84164" stroke-miterlimit="10"/>
            <path d="M111.396 84.9463C111.248 84.6707 111.335 84.1725 111.207 83.8227C111.043 83.3645 110.748 82.9643 110.359 82.6716C109.55 82.0801 108.479 82.1161 107.625 81.5946C106.849 81.1092 106.236 80.4026 105.865 79.5658C105.746 79.2986 105.653 78.8916 105.426 78.6987C105.038 78.3743 104.814 78.9446 104.578 79.1693C104.242 79.4823 103.82 79.6871 103.367 79.7575C102.913 79.8278 102.449 79.7602 102.034 79.5636C101.653 79.375 101.388 78.9955 100.989 78.845C100.591 78.6944 100.565 79.358 100.506 79.5912C100.468 79.7907 100.385 79.9791 100.265 80.1425C100.144 80.3058 99.9879 80.4398 99.8082 80.5346C99.1065 80.8802 98.1483 80.6533 97.5377 80.2442C97.4968 80.2159 97.4487 80.1999 97.399 80.1979C97.3493 80.1959 97.3001 80.208 97.257 80.2329C97.214 80.2578 97.1788 80.2943 97.1557 80.3383C97.1326 80.3824 97.1225 80.432 97.1264 80.4816C97.2218 83.2376 93.957 83.7316 93.957 83.7316" stroke="black" stroke-width="0.84164" stroke-miterlimit="10"/>
            <path d="M98.9084 89.7184C100.541 89.7184 101.864 88.3953 101.864 86.7631C101.864 85.131 100.541 83.8079 98.9084 83.8079C97.2762 83.8079 95.9531 85.131 95.9531 86.7631C95.9531 88.3953 97.2762 89.7184 98.9084 89.7184Z" stroke="black" stroke-width="0.84164" stroke-miterlimit="10"/>
            <path d="M106.569 89.4555C108.201 89.4555 109.524 88.1324 109.524 86.5002C109.524 84.868 108.201 83.5449 106.569 83.5449C104.936 83.5449 103.613 84.868 103.613 86.5002C103.613 88.1324 104.936 89.4555 106.569 89.4555Z" stroke="black" stroke-width="0.84164" stroke-miterlimit="10"/>
            <path d="M97.6719 87.0599C97.6719 87.0599 98.8633 88.4273 100.089 87.0599" stroke="black" stroke-width="0.84164" stroke-miterlimit="10"/>
            <path d="M105.363 87.0599C105.363 87.0599 106.555 88.4273 107.782 87.0599" stroke="black" stroke-width="0.84164" stroke-miterlimit="10"/>
            <path d="M103.094 93.5789C103.669 93.5789 104.135 93.1129 104.135 92.538C104.135 91.9631 103.669 91.4971 103.094 91.4971C102.519 91.4971 102.053 91.9631 102.053 92.538C102.053 93.1129 102.519 93.5789 103.094 93.5789Z" stroke="black" stroke-width="0.84164" stroke-miterlimit="10"/>
            <path d="M101.863 86.7631C101.863 86.7631 102.533 85.6713 103.612 86.5002" stroke="black" stroke-width="0.84164" stroke-miterlimit="10"/>
            <path d="M100.504 82.3769C100.504 82.3769 97.4368 80.0322 94.8652 82.2433" stroke="black" stroke-width="0.84164" stroke-miterlimit="10"/>
            <path d="M109.48 81.1473C109.48 81.1473 105.836 79.8753 104.076 82.7691" stroke="black" stroke-width="0.84164" stroke-miterlimit="10"/>
            <path d="M96.7359 93.8673C96.7288 94.3586 96.5674 94.8353 96.2744 95.2298C95.9815 95.6244 95.5718 95.9168 95.1036 96.0657C93.5899 96.513 91.9871 95.3767 91.3299 94.0644C91.0904 93.6109 90.981 93.0999 91.014 92.588C91.0469 92.0762 91.2208 91.5834 91.5165 91.1643C91.5429 91.1223 91.5605 91.0754 91.5682 91.0265C91.5759 90.9775 91.5735 90.9275 91.5612 90.8795C91.5489 90.8315 91.5269 90.7864 91.4966 90.7472C91.4664 90.708 91.4284 90.6753 91.3851 90.6512C91.0908 90.4742 90.8475 90.224 90.6788 89.9248C90.5101 89.6257 90.4218 89.288 90.4226 88.9446C90.4233 88.8021 90.4389 88.6599 90.4692 88.5206C90.4789 88.4691 90.4777 88.4161 90.4658 88.3651C90.4538 88.3141 90.4314 88.2661 90.3999 88.2242C90.3684 88.1823 90.3285 88.1475 90.2827 88.1218C90.237 88.0962 90.1864 88.0804 90.1343 88.0754C89.98 88.0614 89.8269 88.0359 89.6764 87.9991C89.2546 87.8495 88.8736 87.6032 88.564 87.28C88.2545 86.9568 88.0248 86.5656 87.8934 86.1377C87.2574 84.0686 88.858 81.8596 90.8487 81.3614C90.2551 80.3184 89.4686 79.4767 89.1527 78.2662C88.8368 77.0557 89.0192 75.8049 89.9371 74.9018C91.3681 73.5004 93.7955 73.9372 94.9488 75.4742C94.1708 74.3082 94.4612 72.7182 95.3368 71.6963C96.3968 70.4625 98.4638 70.1932 99.9117 70.8208C100.601 71.1239 101.044 71.7514 101.514 72.3047C102.456 69.642 106.178 69.6251 108.159 71.02C109.189 71.7557 109.855 73.0892 109.526 74.306C109.352 74.923 109.672 75.2918 110.317 75.0078C110.961 74.7237 111.544 74.3336 112.324 74.4184C115.025 74.7046 116.944 78.404 114.913 80.5282C114.701 80.753 114.224 80.9883 114.118 81.2914C113.887 81.9274 115.322 82.0928 115.704 82.256C119.057 83.6637 118.322 90.5707 114.22 90.7106C114.343 91.2978 114.622 91.9487 114.578 92.555C114.489 93.8376 113.579 94.533 112.346 94.5732C112.376 94.8666 112.317 95.1622 112.176 95.4214C112.035 95.6805 111.819 95.8911 111.557 96.0254C110.895 96.3774 109.812 96.2947 109.314 95.682C108.517 94.7195 109.335 93.4581 109.738 92.538C110.332 91.1918 110.624 89.7396 110.893 88.298C111.14 87.1035 111.298 85.8926 111.368 84.675V84.6241" stroke="black" stroke-width="0.84164" stroke-miterlimit="10"/>
            <path d="M10.5996 183.143H53.6844" stroke="black" stroke-width="0.84164" stroke-miterlimit="10"/>
            <path d="M162.1 183.143H201.4" stroke="black" stroke-width="0.84164" stroke-miterlimit="10"/>
      </svg>